<?xml version="1.0" encoding="utf-8"?>
<!-- Generator: Adobe Illustrator 20.1.0, SVG Export Plug-In . SVG Version: 6.00 Build 0)  -->
<svg version="1.1" id="Calque_1" xmlns="http://www.w3.org/2000/svg" xmlns:xlink="http://www.w3.org/1999/xlink" x="0px" y="0px"
	 viewBox="0 0 525.7 182.4" style="enable-background:new 0 0 525.7 182.4;" xml:space="preserve">
<style type="text/css">
	.st0{fill:#FFFFFF;}
	.st1{fill:#003A89;}
	.st2{fill:#E00025;}
	.st3{fill:#FFDC21;}
</style>
<g>
	<path class="st0" d="M193.2,151h3.3l6.6,17.2h-3.4l-1.3-3.6h-7l-1.4,3.6h-3.4L193.2,151z M194.9,155.6l-2.3,5.9h4.6L194.9,155.6z"
		/>
	<path class="st0" d="M205,151h3.4l4.3,12.2l4.4-12.2h3.4l-6.2,17.2h-3.2L205,151z"/>
	<path class="st0" d="M231.9,150.6c2.4,0,4.5,0.9,6.3,2.6s2.6,3.9,2.6,6.5c0,2.5-0.9,4.6-2.6,6.4s-3.8,2.6-6.3,2.6
		c-2.6,0-4.7-0.9-6.4-2.7s-2.6-3.9-2.6-6.4c0-1.6,0.4-3.2,1.2-4.5c0.8-1.4,1.9-2.5,3.3-3.3S230.3,150.6,231.9,150.6z M231.8,153.8
		c-1.6,0-2.9,0.6-4,1.7c-1.1,1.1-1.6,2.5-1.6,4.2c0,1.9,0.7,3.4,2.1,4.5c1.1,0.9,2.3,1.3,3.7,1.3c1.6,0,2.9-0.6,4-1.7
		s1.6-2.5,1.6-4.2c0-1.6-0.6-3-1.7-4.2S233.4,153.8,231.8,153.8z"/>
	<path class="st0" d="M260.3,154l-2.3,2.2c-1.6-1.6-3.3-2.5-5.3-2.5c-1.6,0-3,0.6-4.2,1.7c-1.1,1.1-1.7,2.5-1.7,4.2
		c0,1.1,0.2,2.2,0.7,3.1c0.5,0.9,1.2,1.6,2.1,2.1c0.9,0.5,1.9,0.8,3,0.8c1,0,1.8-0.2,2.6-0.5c0.8-0.4,1.7-1,2.6-1.9l2.2,2.3
		c-1.3,1.2-2.5,2.1-3.6,2.6s-2.4,0.7-3.9,0.7c-2.7,0-4.9-0.8-6.6-2.5s-2.6-3.9-2.6-6.5c0-1.7,0.4-3.2,1.2-4.6s1.9-2.4,3.3-3.2
		s3-1.2,4.7-1.2c1.4,0,2.8,0.3,4.1,0.9C258.3,152.1,259.4,152.9,260.3,154z"/>
	<path class="st0" d="M269.1,151h3.3l6.6,17.2h-3.4l-1.3-3.6h-7l-1.4,3.6h-3.4L269.1,151z M270.8,155.6l-2.3,5.9h4.6L270.8,155.6z"
		/>
	<path class="st0" d="M280.5,151h9.5v3.2h-3.1v14h-3.3v-14h-3.1V151z"/>
	<path class="st0" d="M301.9,153.3l-2.4,2.1c-0.9-1.2-1.7-1.8-2.6-1.8c-0.4,0-0.8,0.1-1.1,0.3c-0.3,0.2-0.4,0.5-0.4,0.8
		s0.1,0.6,0.3,0.8c0.3,0.3,1.1,1.1,2.4,2.2c1.3,1,2,1.7,2.3,2c0.7,0.7,1.1,1.3,1.4,1.9c0.3,0.6,0.4,1.3,0.4,2c0,1.4-0.5,2.6-1.5,3.5
		s-2.3,1.4-3.8,1.4c-1.2,0-2.3-0.3-3.2-0.9s-1.7-1.5-2.3-2.8l2.8-1.7c0.8,1.5,1.8,2.3,2.9,2.3c0.6,0,1-0.2,1.4-0.5s0.6-0.7,0.6-1.1
		c0-0.4-0.1-0.8-0.4-1.2s-0.9-1-1.9-1.8c-1.9-1.5-3.1-2.7-3.6-3.5s-0.8-1.7-0.8-2.5c0-1.2,0.5-2.2,1.4-3.1c0.9-0.9,2-1.3,3.4-1.3
		c0.9,0,1.7,0.2,2.5,0.6S301,152.3,301.9,153.3z"/>
</g>
<rect x="119.4" y="150.6" class="st1" width="31.8" height="31.8"/>
<rect y="106.5" class="st2" width="70.1" height="12.8"/>
<rect x="105.1" class="st3" width="27.1" height="27.1"/>
<path class="st0" d="M91.6,44.7h5.3v69.4h54.2v5.1H91.6V44.7z"/>
<path class="st0" d="M263,65.6h6.2L282,86.3l12.8-20.7h6.1L285,91.4l16.9,27.5h-6.2L282,96.4l-13.9,22.5h-6.2l17-27.5L263,65.6z"/>
<path class="st0" d="M340.1,65.6h5.3v53.3h-5.3V65.6z"/>
<path class="st0" d="M522.5,74.5l-4.1,3.9c-3-2.9-6.2-5.1-9.8-6.6c-3.5-1.5-7-2.3-10.3-2.3c-4.2,0-8.2,1-11.9,3.1
	c-3.8,2.1-6.7,4.8-8.8,8.4c-2.1,3.5-3.1,7.2-3.1,11.1c0,4,1.1,7.8,3.2,11.4s5.1,6.4,8.9,8.5s7.9,3.1,12.5,3.1
	c5.5,0,10.1-1.5,13.9-4.6s6-7.1,6.7-12h-17v-5.1h23c0,8.2-2.5,14.8-7.3,19.6c-4.8,4.8-11.3,7.3-19.4,7.3c-9.9,0-17.7-3.4-23.4-10.1
	c-4.4-5.2-6.6-11.1-6.6-17.9c0-5,1.3-9.7,3.8-14.1c2.5-4.3,6-7.7,10.4-10.2s9.4-3.7,15-3.7c4.5,0,8.8,0.8,12.8,2.4
	C514.9,68.3,518.8,70.9,522.5,74.5z"/>
<rect x="186.6" y="65.6" class="st0" width="40.2" height="5.2"/>
<rect x="186.6" y="114" class="st0" width="40.2" height="5.2"/>
<rect x="186.6" y="89.8" class="st0" width="40.2" height="5.2"/>
<polygon class="st0" points="393,119.2 393,76.2 425,119.2 429.3,119.2 429.3,65.8 424.1,65.8 424.1,108.8 392.1,65.8 387.5,65.8 
	387.5,119.2 "/>
</svg>
